<svg width="20px" height="20px" viewBox="0 0 20 20" version="1.1" xmlns="http://www.w3.org/2000/svg" xmlns:xlink="http://www.w3.org/1999/xlink">
    <g id="Page-1" stroke="none" stroke-width="1" fill="none" fill-rule="evenodd">
        <g id="Artboard" transform="translate(-402.000000, -422.000000)">
            <g id="Group-2" transform="translate(402.000000, 422.000000)">
                <rect id="Rectangle" x="0" y="0" width="20" height="20"></rect>
                <g id="Group" transform="translate(2.000000, 0.000000)" fill="#000000" fill-rule="nonzero">
                    <path d="M9.7533481,0 C10.9105985,0 11.863488,0.8749731 11.9865561,1.9994587 L13.75,2 C14.940864,2 15.9156449,2.92516159 15.9948092,4.09595119 L16,4.25 L16,7.74741583 C16,8.1616294 15.6642136,8.49741583 15.25,8.49741583 C14.8703042,8.49741583 14.556509,8.21526195 14.5068466,7.84918639 L14.5,7.74741583 L14.5,4.25 C14.5,3.87030423 14.2178461,3.55650904 13.8517706,3.50684662 L13.75,3.5 L11.6182905,3.49983563 C11.214809,4.09910034 10.5301141,4.49330383 9.7533481,4.49330383 L6.2466519,4.49330383 C5.46988587,4.49330383 4.78519098,4.09910034 4.38170952,3.49983563 L2.25,3.5 C1.87030423,3.5 1.55650904,3.78215388 1.50684662,4.14822944 L1.5,4.25 L1.5,17.754591 C1.5,18.1342868 1.78215388,18.448082 2.14822944,18.4977444 L2.25,18.504591 L8.7547548,18.504591 C9.16896837,18.504591 9.5047548,18.8403774 9.5047548,19.254591 C9.5047548,19.6342868 9.22260092,19.948082 8.85652536,19.9977444 L8.7547548,20.004591 L2.25,20.004591 C1.05913601,20.004591 0.08435508,19.0794294 0.00519081,17.9086398 L0,17.754591 L0,4.25 C0,3.05913601 0.92516159,2.08435508 2.09595119,2.00519081 L2.25,2 L4.01344395,1.9994587 C4.13651196,0.8749731 5.08940148,0 6.2466519,0 L9.7533481,0 Z M9.7533481,1.5 L6.2466519,1.5 C5.83428745,1.5 5.5,1.83428745 5.5,2.24665191 C5.5,2.65901638 5.83428745,2.99330383 6.2466519,2.99330383 L9.7533481,2.99330383 C10.1657126,2.99330383 10.5,2.65901638 10.5,2.24665191 C10.5,1.83428745 10.1657126,1.5 9.7533481,1.5 Z" id="🎨-Color"></path>
                </g>
                <g id="T" transform="translate(11.126331, 9.711066)" fill="#1C1C1C" fill-rule="nonzero">
                    <path d="M7.67809924,1.64319249 L5.40414663,1.64319249 L5.40414663,8.78604963 C5.40414663,9.19740666 5.30822888,9.50257098 5.11639337,9.70154259 C4.92455786,9.9005142 4.67657538,10 4.37244591,10 C4.06363753,10 3.81214586,9.89939638 3.6179709,9.69818913 C3.42379593,9.49698189 3.32670845,9.19293539 3.32670845,8.78604963 L3.32670845,1.64319249 L1.05275584,1.64319249 C0.69715831,1.64319249 0.432799622,1.56829868 0.259679773,1.41851107 C0.0865599245,1.26872345 0,1.07086966 0,0.824949698 C0,0.57008719 0.0900691106,0.368879946 0.270207332,0.221327968 C0.450345553,0.0737759893 0.711195055,0 1.05275584,0 L7.67809924,0 C8.03837569,0 8.30624356,0.0760116253 8.48170287,0.228034876 C8.65716217,0.380058127 8.74489183,0.579029734 8.74489183,0.824949698 C8.74489183,1.07086966 8.65599245,1.26872345 8.47819368,1.41851107 C8.30039492,1.56829868 8.03369677,1.64319249 7.67809924,1.64319249 Z" id="Path"></path>
                </g>
            </g>
        </g>
    </g>
</svg>